# Blender 4.0.2
# www.blender.org
mtllib herbata.mtl
o Cylinder.001
v 0.000000 0.000000 -1.000000
v 0.000000 0.148029 -1.000000
v 0.540641 0.000000 -0.841254
v 0.540641 0.148029 -0.841254
v 0.909632 0.000000 -0.415415
v 0.909632 0.148029 -0.415415
v 0.989821 0.000000 0.142315
v 0.989821 0.148029 0.142315
v 0.755750 0.000000 0.654861
v 0.755750 0.148029 0.654861
v 0.281733 0.000000 0.959493
v 0.281733 0.148029 0.959493
v -0.281733 0.000000 0.959493
v -0.281733 0.148029 0.959493
v -0.755750 0.000000 0.654861
v -0.755750 0.148029 0.654861
v -0.989821 0.000000 0.142315
v -0.989821 0.148029 0.142315
v -0.909632 0.000000 -0.415415
v -0.909632 0.148029 -0.415415
v -0.540641 0.000000 -0.841254
v -0.540641 0.148029 -0.841254
v 0.000000 3.234550 -1.456041
v 0.787195 3.234550 -1.224900
v 1.324461 3.234550 -0.604861
v 1.441221 3.234550 0.207216
v 1.100402 3.234550 0.953504
v 0.410214 3.234550 1.397061
v -0.410214 3.234550 1.397061
v -1.100402 3.234550 0.953504
v -1.441221 3.234550 0.207216
v -1.324461 3.234550 -0.604861
v -0.787195 3.234550 -1.224900
v 0.000000 0.037515 -0.874632
v 0.000000 0.166985 -0.874632
v 0.472862 0.037515 -0.735787
v 0.472862 0.166985 -0.735787
v 0.795593 0.037515 -0.363335
v 0.795593 0.166985 -0.363335
v 0.865729 0.037515 0.124473
v 0.865729 0.166985 0.124473
v 0.661003 0.037515 0.572762
v 0.661003 0.166985 0.572762
v 0.246412 0.037515 0.839203
v 0.246412 0.166985 0.839203
v -0.246412 0.037515 0.839203
v -0.246412 0.166985 0.839203
v -0.661003 0.037515 0.572762
v -0.661003 0.166985 0.572762
v -0.865729 0.037515 0.124473
v -0.865729 0.166985 0.124473
v -0.795593 0.037515 -0.363335
v -0.795593 0.166985 -0.363335
v -0.472862 0.037515 -0.735787
v -0.472862 0.166985 -0.735787
v 0.000000 2.866556 -1.273500
v 0.688506 2.866556 -1.071336
v 1.158416 2.866556 -0.529031
v 1.260538 2.866556 0.181238
v 0.962447 2.866556 0.833965
v 0.358786 2.866556 1.221914
v -0.358786 2.866556 1.221914
v -0.962447 2.866556 0.833965
v -1.260538 2.866556 0.181238
v -1.158416 2.866556 -0.529031
v -0.688506 2.866556 -1.071336
v -0.000000 0.136259 -0.840208
v 0.000000 0.163623 -0.790580
v 0.454251 0.136259 -0.706828
v 0.427420 0.163623 -0.665078
v 0.764280 0.136259 -0.349035
v 0.719137 0.163623 -0.328419
v 0.831656 0.136259 0.119574
v 0.782533 0.163623 0.112511
v 0.634987 0.136259 0.550219
v 0.597480 0.163623 0.517720
v 0.236714 0.136259 0.806173
v 0.222732 0.163623 0.758556
v -0.236714 0.136259 0.806173
v -0.222732 0.163623 0.758556
v -0.634987 0.136259 0.550219
v -0.597480 0.163623 0.517720
v -0.831656 0.136259 0.119574
v -0.782533 0.163623 0.112511
v -0.764280 0.136259 -0.349035
v -0.719137 0.163623 -0.328419
v -0.454251 0.136259 -0.706828
v -0.427420 0.163623 -0.665078
v 0.000000 3.265245 -1.248296
v 0.674880 3.265245 -1.050134
v 1.135490 3.265245 -0.518561
v 1.235590 3.265245 0.177651
v 0.943399 3.265245 0.817460
v 0.351686 3.265245 1.197732
v -0.351686 3.265245 1.197732
v -0.943399 3.265245 0.817460
v -1.235590 3.265245 0.177651
v -1.135490 3.265245 -0.518561
v -0.674880 3.265245 -1.050134
v 0.000000 0.173773 -0.714840
v 0.000000 0.182580 -0.665212
v 0.386471 0.173773 -0.601361
v 0.359641 0.182580 -0.559612
v 0.650241 0.173773 -0.296955
v 0.605098 0.182580 -0.276339
v 0.707564 0.173774 0.101732
v 0.658441 0.182580 0.094670
v 0.540240 0.173773 0.468120
v 0.502733 0.182580 0.435621
v 0.201394 0.173773 0.685884
v 0.187412 0.182580 0.638266
v -0.201394 0.173773 0.685884
v -0.187412 0.182580 0.638266
v -0.540240 0.173773 0.468120
v -0.502733 0.182580 0.435621
v -0.707564 0.173774 0.101732
v -0.658441 0.182580 0.094670
v -0.650241 0.173773 -0.296955
v -0.605098 0.182580 -0.276339
v -0.386471 0.173773 -0.601361
v -0.359641 0.182580 -0.559612
v 0.000000 2.742001 -1.104426
v 0.597098 2.742001 -0.929102
v 1.004621 2.742001 -0.458795
v 1.093184 2.742001 0.157176
v 0.834669 2.742001 0.723245
v 0.311153 2.742001 1.059689
v -0.311153 2.742001 1.059689
v -0.834669 2.742001 0.723245
v -1.093184 2.742001 0.157176
v -1.004621 2.742001 -0.458795
v -0.597098 2.742001 -0.929102
vn 0.2817 -0.0000 -0.9595
vn 0.7557 -0.0000 -0.6549
vn 0.9898 -0.0000 -0.1423
vn 0.9096 -0.0000 0.4154
vn 0.5406 -0.0000 0.8413
vn -0.0000 -0.0000 1.0000
vn -0.5406 -0.0000 0.8413
vn -0.9096 -0.0000 0.4154
vn -0.9898 -0.0000 -0.1423
vn 0.9006 -0.1404 0.4113
vn -0.7557 -0.0000 -0.6549
vn -0.2817 -0.0000 -0.9595
vn -0.0000 -1.0000 -0.0000
vn 0.2789 -0.1404 -0.9500
vn 0.9800 -0.1404 -0.1409
vn -0.2789 -0.1404 -0.9500
vn 0.7483 -0.1404 -0.6484
vn -0.7483 -0.1404 -0.6484
vn -0.9800 -0.1404 -0.1409
vn -0.9006 -0.1404 0.4113
vn -0.5353 -0.1404 0.8329
vn -0.0000 -0.1404 0.9901
vn 0.5353 -0.1404 0.8329
vn -0.0000 1.0000 -0.0000
vn -0.1404 -0.8670 0.4781
vn -0.3766 -0.8670 0.3263
vn -0.4932 -0.8670 0.0709
vn -0.4532 -0.8670 -0.2070
vn -0.2694 -0.8670 -0.4192
vn -0.0000 -0.8670 -0.4983
vn 0.2694 -0.8670 -0.4192
vn 0.4532 -0.8670 -0.2070
vn 0.4932 -0.8670 0.0709
vn -0.9006 0.1402 -0.4113
vn 0.3766 -0.8670 0.3263
vn 0.1404 -0.8670 0.4781
vn -0.2790 0.1402 0.9500
vn -0.9800 0.1402 0.1409
vn 0.2789 0.1402 0.9500
vn -0.7483 0.1402 0.6484
vn 0.7483 0.1402 0.6484
vn 0.9800 0.1402 0.1409
vn 0.9006 0.1402 -0.4113
vn 0.5353 0.1402 -0.8329
vn -0.0000 0.1402 -0.9901
vn -0.5353 0.1402 -0.8329
vn -0.0512 -0.9833 0.1745
vn -0.1374 -0.9833 0.1191
vn -0.1800 -0.9833 0.0259
vn -0.1654 -0.9833 -0.0755
vn -0.0983 -0.9833 -0.1530
vn -0.0000 -0.9833 -0.1819
vn 0.0983 -0.9833 -0.1530
vn 0.1654 -0.9833 -0.0755
vn 0.1800 -0.9833 0.0259
vn -0.8975 0.1625 -0.4099
vn 0.1374 -0.9833 0.1191
vn 0.0512 -0.9833 0.1745
vn -0.2780 0.1625 0.9467
vn -0.9767 0.1625 0.1404
vn 0.2780 0.1625 0.9467
vn -0.7457 0.1625 0.6462
vn 0.7457 0.1625 0.6462
vn 0.9767 0.1625 0.1404
vn 0.8975 0.1625 -0.4099
vn 0.5335 0.1625 -0.8301
vn -0.0000 0.1625 -0.9867
vn -0.5335 0.1625 -0.8301
vn 0.0429 0.9884 -0.1460
vn 0.1150 0.9884 -0.0997
vn 0.1506 0.9884 -0.0217
vn 0.1384 0.9884 0.0632
vn 0.0823 0.9884 0.1280
vn -0.0000 0.9884 0.1522
vn -0.0823 0.9884 0.1280
vn -0.1384 0.9884 0.0632
vn -0.1506 0.9884 -0.0217
vn -0.1150 0.9884 -0.0997
vn -0.0429 0.9884 -0.1460
vt 1.000000 0.500000
vt 1.000000 1.000000
vt 0.909091 1.000000
vt 0.909091 0.500000
vt 0.818182 1.000000
vt 0.818182 0.500000
vt 0.727273 1.000000
vt 0.727273 0.500000
vt 0.636364 1.000000
vt 0.636364 0.500000
vt 0.545454 1.000000
vt 0.545454 0.500000
vt 0.454545 1.000000
vt 0.454545 0.500000
vt 0.363636 1.000000
vt 0.363636 0.500000
vt 0.272727 1.000000
vt 0.272727 0.500000
vt 0.181818 1.000000
vt 0.181818 0.500000
vt 0.090909 1.000000
vt 0.090909 0.500000
vt -0.000000 1.000000
vt -0.000000 0.500000
vt 0.750000 0.490000
vt 0.879754 0.451901
vt 0.968312 0.349700
vt 0.987557 0.215844
vt 0.931380 0.092833
vt 0.817616 0.019722
vt 0.682384 0.019722
vt 0.568620 0.092833
vt 0.512443 0.215844
vt 0.531688 0.349700
vt 0.620246 0.451901
s 0
usemtl Material
f 1/1/1 2/2/1 4/3/1 3/4/1
f 3/4/2 4/3/2 6/5/2 5/6/2
f 5/6/3 6/5/3 8/7/3 7/8/3
f 7/8/4 8/7/4 10/9/4 9/10/4
f 9/10/5 10/9/5 12/11/5 11/12/5
f 11/12/6 12/11/6 14/13/6 13/14/6
f 13/14/7 14/13/7 16/15/7 15/16/7
f 15/16/8 16/15/8 18/17/8 17/18/8
f 17/18/9 18/17/9 20/19/9 19/20/9
f 10/9/10 8/7/10 26/7/10 27/9/10
f 19/20/11 20/19/11 22/21/11 21/22/11
f 21/22/12 22/21/12 2/23/12 1/24/12
f 1/25/13 3/26/13 5/27/13 7/28/13 9/29/13 11/30/13 13/31/13 15/32/13 17/33/13 19/34/13 21/35/13
f 4/3/14 2/2/14 23/2/14 24/3/14
f 8/7/15 6/5/15 25/5/15 26/7/15
f 2/23/16 22/21/16 33/21/16 23/23/16
f 6/5/17 4/3/17 24/3/17 25/5/17
f 22/21/18 20/19/18 32/19/18 33/21/18
f 20/19/19 18/17/19 31/17/19 32/19/19
f 18/17/20 16/15/20 30/15/20 31/17/20
f 16/15/21 14/13/21 29/13/21 30/15/21
f 14/13/22 12/11/22 28/11/22 29/13/22
f 12/11/23 10/9/23 27/9/23 28/11/23
f 67/1/25 69/4/25 70/3/25 68/2/25
f 69/4/26 71/6/26 72/5/26 70/3/26
f 71/6/27 73/8/27 74/7/27 72/5/27
f 73/8/28 75/10/28 76/9/28 74/7/28
f 75/10/29 77/12/29 78/11/29 76/9/29
f 77/12/30 79/14/30 80/13/30 78/11/30
f 79/14/31 81/16/31 82/15/31 80/13/31
f 81/16/32 83/18/32 84/17/32 82/15/32
f 83/18/33 85/20/33 86/19/33 84/17/33
f 76/9/34 93/9/34 92/7/34 74/7/34
f 85/20/35 87/22/35 88/21/35 86/19/35
f 87/22/36 67/24/36 68/23/36 88/21/36
f 67/25/24 87/35/24 85/34/24 83/33/24 81/32/24 79/31/24 77/30/24 75/29/24 73/28/24 71/27/24 69/26/24
f 70/3/37 90/3/37 89/2/37 68/2/37
f 74/7/38 92/7/38 91/5/38 72/5/38
f 68/23/39 89/23/39 99/21/39 88/21/39
f 72/5/40 91/5/40 90/3/40 70/3/40
f 88/21/41 99/21/41 98/19/41 86/19/41
f 86/19/42 98/19/42 97/17/42 84/17/42
f 84/17/43 97/17/43 96/15/43 82/15/43
f 82/15/44 96/15/44 95/13/44 80/13/44
f 80/13/45 95/13/45 94/11/45 78/11/45
f 78/11/46 94/11/46 93/9/46 76/9/46
f 24/3/69 23/2/69 89/2/69 90/3/69
f 25/5/70 24/3/70 90/3/70 91/5/70
f 26/7/71 25/5/71 91/5/71 92/7/71
f 27/9/72 26/7/72 92/7/72 93/9/72
f 28/11/73 27/9/73 93/9/73 94/11/73
f 29/13/74 28/11/74 94/11/74 95/13/74
f 30/15/75 29/13/75 95/13/75 96/15/75
f 31/17/76 30/15/76 96/15/76 97/17/76
f 32/19/77 31/17/77 97/17/77 98/19/77
f 33/21/78 32/19/78 98/19/78 99/21/78
f 23/23/79 33/21/79 99/21/79 89/23/79
usemtl Material.001
f 34/1/1 35/2/1 37/3/1 36/4/1
f 36/4/2 37/3/2 39/5/2 38/6/2
f 38/6/3 39/5/3 41/7/3 40/8/3
f 40/8/4 41/7/4 43/9/4 42/10/4
f 42/10/5 43/9/5 45/11/5 44/12/5
f 44/12/6 45/11/6 47/13/6 46/14/6
f 46/14/7 47/13/7 49/15/7 48/16/7
f 48/16/8 49/15/8 51/17/8 50/18/8
f 50/18/9 51/17/9 53/19/9 52/20/9
f 43/9/10 41/7/10 59/7/10 60/9/10
f 52/20/11 53/19/11 55/21/11 54/22/11
f 54/22/12 55/21/12 35/23/12 34/24/12
f 34/25/13 36/26/13 38/27/13 40/28/13 42/29/13 44/30/13 46/31/13 48/32/13 50/33/13 52/34/13 54/35/13
f 37/3/14 35/2/14 56/2/14 57/3/14
f 41/7/15 39/5/15 58/5/15 59/7/15
f 35/23/16 55/21/16 66/21/16 56/23/16
f 39/5/17 37/3/17 57/3/17 58/5/17
f 55/21/18 53/19/18 65/19/18 66/21/18
f 53/19/19 51/17/19 64/17/19 65/19/19
f 51/17/20 49/15/20 63/15/20 64/17/20
f 49/15/21 47/13/21 62/13/21 63/15/21
f 47/13/22 45/11/22 61/11/22 62/13/22
f 45/11/23 43/9/23 60/9/23 61/11/23
f 57/3/24 56/23/24 66/21/24 65/19/24 64/17/24 63/15/24 62/13/24 61/11/24 60/9/24 59/7/24 58/5/24
f 100/1/47 102/4/47 103/3/47 101/2/47
f 102/4/48 104/6/48 105/5/48 103/3/48
f 104/6/49 106/8/49 107/7/49 105/5/49
f 106/8/50 108/10/50 109/9/50 107/7/50
f 108/10/51 110/12/51 111/11/51 109/9/51
f 110/12/52 112/14/52 113/13/52 111/11/52
f 112/14/53 114/16/53 115/15/53 113/13/53
f 114/16/54 116/18/54 117/17/54 115/15/54
f 116/18/55 118/20/55 119/19/55 117/17/55
f 109/9/56 126/9/56 125/7/56 107/7/56
f 118/20/57 120/22/57 121/21/57 119/19/57
f 120/22/58 100/24/58 101/23/58 121/21/58
f 100/25/24 120/35/24 118/34/24 116/33/24 114/32/24 112/31/24 110/30/24 108/29/24 106/28/24 104/27/24 102/26/24
f 103/3/59 123/3/59 122/2/59 101/2/59
f 107/7/60 125/7/60 124/5/60 105/5/60
f 101/23/61 122/23/61 132/21/61 121/21/61
f 105/5/62 124/5/62 123/3/62 103/3/62
f 121/21/63 132/21/63 131/19/63 119/19/63
f 119/19/64 131/19/64 130/17/64 117/17/64
f 117/17/65 130/17/65 129/15/65 115/15/65
f 115/15/66 129/15/66 128/13/66 113/13/66
f 113/13/67 128/13/67 127/11/67 111/11/67
f 111/11/68 127/11/68 126/9/68 109/9/68
f 123/3/13 124/5/13 125/7/13 126/9/13 127/11/13 128/13/13 129/15/13 130/17/13 131/19/13 132/21/13 122/23/13
